# xmcd CD database file
#
# Track frame offsets:
#	182
#	11697
#	25200
#
# Disc length: 486 seconds
#
# Revision: 1
# Processed by: cddbd v1.5.1PL0 Copyright (c) Steve Scherf et al.
# Submitted via: CDex 1.50
#
DISCID=1901e403
DTITLE=OUCH! - i need you more
DYEAR=1992
DGENRE=Rock and Roll
TTITLE0=i need you more
TTITLE1=world of fantasy
TTITLE2=carina
EXTD=YEAR: 1992
EXTT0=
EXTT1=
EXTT2=
PLAYORDER=
